<svg width="177" height="33" viewBox="0 0 177 33" fill="none" xmlns="http://www.w3.org/2000/svg">
<path d="M22.1278 32.2742C20.6124 32.2539 19.1061 32.0381 17.6464 31.6323C14.9078 30.8868 12.1992 29.545 10.5836 28.1312C7.8662 25.7555 6.71673 22.3687 7.72494 19.7046C8.33411 18.092 10.2464 15.3893 16.2003 15.3893H24.9688C24.6913 14.3316 24.3601 13.2887 23.9764 12.2644C21.8452 6.61091 18.7623 3.74459 14.8125 3.74459C12.3846 3.74459 10.3558 5.00542 8.60955 7.59918C7.08751 9.86235 5.84623 13.0681 4.92276 17.1266C3.31068 24.2168 3.25595 31.4389 3.25595 31.511L0 31.4969C0 31.1892 0.052965 23.888 1.73744 16.4567C2.74742 11.9971 4.14586 8.41688 5.89214 5.81257C8.25642 2.2956 11.2581 0.501953 14.8125 0.501953C20.1837 0.501953 24.4055 4.17542 27.0241 11.1249C27.5423 12.5193 27.9763 13.9433 28.3236 15.3893H33.9862V18.6319H28.9893C29.3753 20.8441 29.5866 23.0831 29.6214 25.3282C29.6214 28.2701 28.3183 30.477 25.9523 31.5444C24.7534 32.0825 23.415 32.2742 22.1278 32.2742ZM16.2056 18.6319C13.2834 18.6319 11.3023 19.439 10.7708 20.8476C10.2393 22.2561 11.0515 24.2256 12.7289 25.694C13.9808 26.786 16.2462 27.8903 18.5045 28.5075C21.0012 29.1863 23.226 29.2109 24.6086 28.5937C25.3625 28.2543 26.3654 27.5386 26.3654 25.3317C26.3208 23.0833 26.0899 20.8424 25.6751 18.6319H16.2056Z" fill="white"/>
<path d="M53.498 25.3521C52.5615 25.3521 51.7181 25.1863 50.9676 24.8547C50.2236 24.5167 49.6335 24.0192 49.1973 23.3623C48.7676 22.7055 48.5527 21.8955 48.5527 20.9325C48.5527 20.1034 48.7067 19.4178 49.0145 18.8757C49.3224 18.3337 49.7425 17.9 50.2749 17.5747C50.8073 17.2495 51.407 17.0039 52.074 16.8381C52.7475 16.6659 53.4435 16.5416 54.1618 16.465C55.0277 16.3758 55.7301 16.296 56.2688 16.2259C56.8076 16.1493 57.1989 16.0346 57.4426 15.8815C57.6928 15.7221 57.8178 15.4765 57.8178 15.1449V15.0875C57.8178 14.3668 57.603 13.8088 57.1732 13.4134C56.7435 13.018 56.1245 12.8203 55.3164 12.8203C54.4633 12.8203 53.7866 13.0052 53.2863 13.3751C52.7924 13.745 52.4589 14.1819 52.2857 14.6857L49.0338 14.2265C49.2904 13.3337 49.7137 12.5875 50.3038 11.988C50.8939 11.3821 51.6154 10.9293 52.4685 10.6296C53.3216 10.3235 54.2644 10.1704 55.2971 10.1704C56.0091 10.1704 56.7178 10.2533 57.4234 10.4191C58.1289 10.5849 58.7735 10.8592 59.3572 11.2418C59.9409 11.6181 60.4091 12.1315 60.7619 12.782C61.1211 13.4325 61.3007 14.2457 61.3007 15.2214V25.0556H57.9525V23.0371H57.8371C57.6254 23.4453 57.3272 23.8279 56.9423 24.1851C56.5639 24.5358 56.086 24.8196 55.5088 25.0365C54.9379 25.2469 54.2677 25.3521 53.498 25.3521ZM54.4024 22.8075C55.1015 22.8075 55.7076 22.6704 56.2207 22.3962C56.7339 22.1155 57.1283 21.7456 57.4041 21.2865C57.6863 20.8273 57.8275 20.3266 57.8275 19.7845V18.053C57.7184 18.1423 57.5324 18.2252 57.2694 18.3018C57.0129 18.3783 56.7242 18.4453 56.4035 18.5027C56.0828 18.5601 55.7653 18.6111 55.451 18.6557C55.1368 18.7004 54.8642 18.7386 54.6333 18.7705C54.1137 18.8407 53.6487 18.9555 53.2382 19.1149C52.8277 19.2743 52.5038 19.4976 52.2665 19.7845C52.0292 20.0652 51.9105 20.4287 51.9105 20.8751C51.9105 21.5129 52.1446 21.9944 52.6128 22.3196C53.0811 22.6449 53.6776 22.8075 54.4024 22.8075Z" fill="white"/>
<path d="M71.7461 10.3617V13.0403H63.0101V10.3617H71.7461ZM65.1941 25.0556V8.97461C65.1941 7.98609 65.3994 7.16339 65.8099 6.5065C66.2268 5.84962 66.7848 5.35855 67.4839 5.03329C68.1831 4.70804 68.9592 4.54541 69.8122 4.54541C70.4152 4.54541 70.9507 4.59324 71.419 4.68891C71.8872 4.78457 72.2335 4.87067 72.458 4.9472L71.7653 7.62576C71.6178 7.58112 71.4318 7.53648 71.2073 7.49183C70.9828 7.44081 70.7327 7.4153 70.4569 7.4153C69.809 7.4153 69.3504 7.57155 69.081 7.88405C68.8181 8.19018 68.6866 8.63023 68.6866 9.20421V25.0556H65.1941Z" fill="white"/>
<path d="M81.3112 10.3617V13.0403H72.8158V10.3617H81.3112ZM74.9131 6.84133H78.396V20.636C78.396 21.1015 78.4665 21.4587 78.6076 21.7074C78.7552 21.9497 78.9476 22.1155 79.1849 22.2048C79.4222 22.2941 79.6852 22.3388 79.9738 22.3388C80.1919 22.3388 80.3907 22.3228 80.5703 22.2909C80.7563 22.259 80.8975 22.2303 80.9937 22.2048L81.5806 24.9121C81.3945 24.9759 81.1284 25.046 80.782 25.1225C80.4421 25.1991 80.0251 25.2437 79.5313 25.2565C78.659 25.282 77.8732 25.1513 77.1741 24.8643C76.475 24.5709 75.9202 24.1181 75.5097 23.5058C75.1056 22.8936 74.9067 22.1283 74.9131 21.2099V6.84133Z" fill="white"/>
<path d="M90.0657 25.3426C88.584 25.3426 87.3044 25.0365 86.2269 24.4242C85.1557 23.8056 84.3315 22.9319 83.7542 21.803C83.177 20.6678 82.8883 19.3317 82.8883 17.7948C82.8883 16.2833 83.177 14.9567 83.7542 13.8152C84.3379 12.6672 85.1525 11.7744 86.198 11.1366C87.2435 10.4925 88.4718 10.1704 89.8829 10.1704C90.7937 10.1704 91.6532 10.3171 92.4613 10.6105C93.2759 10.8974 93.9943 11.3439 94.6164 11.9497C95.245 12.5556 95.7389 13.3273 96.0981 14.2648C96.4573 15.1959 96.6369 16.3056 96.6369 17.5939V18.6557H84.5239V16.3215H93.2984C93.2919 15.6583 93.1476 15.0684 92.8654 14.5518C92.5832 14.0288 92.1887 13.6175 91.682 13.3177C91.1817 13.018 90.598 12.8681 89.931 12.8681C89.219 12.8681 88.5937 13.0403 88.0549 13.3847C87.5161 13.7227 87.096 14.1691 86.7945 14.724C86.4995 15.2724 86.3487 15.8751 86.3423 16.532V18.5696C86.3423 19.4242 86.4995 20.1576 86.8137 20.7699C87.128 21.3757 87.5674 21.8413 88.1318 22.1666C88.6963 22.4854 89.3569 22.6449 90.1138 22.6449C90.6205 22.6449 91.0791 22.5747 91.4896 22.4344C91.9001 22.2877 92.2561 22.0741 92.5575 21.7935C92.859 21.5129 93.0867 21.1653 93.2406 20.7507L96.4926 21.1143C96.2873 21.9689 95.896 22.715 95.3188 23.3528C94.7479 23.9842 94.0167 24.4752 93.1252 24.826C92.2336 25.1704 91.2138 25.3426 90.0657 25.3426Z" fill="white"/>
<path d="M99.0415 25.0556V10.3617H102.418V12.8107H102.572C102.842 11.9625 103.304 11.3088 103.958 10.8496C104.618 10.3841 105.372 10.1513 106.219 10.1513C106.411 10.1513 106.626 10.1608 106.863 10.18C107.107 10.1927 107.309 10.215 107.47 10.2469V13.4325C107.322 13.3815 107.088 13.3369 106.767 13.2986C106.453 13.2539 106.148 13.2316 105.853 13.2316C105.218 13.2316 104.647 13.3687 104.141 13.643C103.64 13.9108 103.246 14.2839 102.957 14.7622C102.669 15.2405 102.524 15.7922 102.524 16.4172V25.0556H99.0415Z" fill="white"/>
<path d="M119.998 13.6525L117.958 14.2265C117.83 13.8885 117.641 13.5601 117.391 13.2412C117.147 12.9159 116.813 12.6481 116.39 12.4376C115.967 12.2272 115.425 12.1219 114.764 12.1219C113.86 12.1219 113.106 12.3292 112.503 12.7437C111.907 13.1519 111.608 13.6717 111.608 14.3031C111.608 14.8643 111.814 15.3075 112.224 15.6328C112.635 15.958 113.276 16.2291 114.148 16.4459L116.342 16.9816C117.663 17.3005 118.648 17.7884 119.296 18.4453C119.943 19.0958 120.267 19.9344 120.267 20.9612C120.267 21.803 120.024 22.5556 119.536 23.2189C119.055 23.8821 118.382 24.4051 117.516 24.7877C116.65 25.1704 115.643 25.3617 114.495 25.3617C112.987 25.3617 111.74 25.0365 110.752 24.3859C109.764 23.7354 109.139 22.7852 108.876 21.5352L111.031 20.9995C111.236 21.7903 111.624 22.3834 112.195 22.7788C112.772 23.1742 113.526 23.3719 114.456 23.3719C115.514 23.3719 116.355 23.1487 116.977 22.7023C117.605 22.2495 117.92 21.7074 117.92 21.076C117.92 20.5658 117.74 20.1385 117.381 19.7941C117.022 19.4433 116.47 19.1819 115.726 19.0097L113.263 18.4357C111.91 18.1168 110.916 17.6226 110.281 16.9529C109.652 16.2769 109.338 15.4319 109.338 14.4178C109.338 13.5888 109.572 12.8553 110.04 12.2176C110.515 11.5798 111.159 11.0792 111.974 10.7157C112.795 10.3522 113.725 10.1704 114.764 10.1704C116.226 10.1704 117.375 10.4893 118.208 11.127C119.049 11.7648 119.645 12.6066 119.998 13.6525Z" fill="white"/>
<path d="M125.414 16.2163V25.0556H123.143V5.46378H125.414V12.6576H125.606C125.953 11.8987 126.472 11.296 127.165 10.8496C127.864 10.3968 128.794 10.1704 129.955 10.1704C130.962 10.1704 131.844 10.3713 132.601 10.7731C133.358 11.1685 133.945 11.7775 134.362 12.6002C134.785 13.4166 134.996 14.4561 134.996 15.7189V25.0556H132.726V15.8719C132.726 14.7048 132.421 13.8024 131.812 13.1647C131.209 12.5205 130.372 12.1985 129.301 12.1985C128.557 12.1985 127.89 12.3547 127.3 12.6672C126.716 12.9797 126.254 13.4357 125.914 14.0352C125.581 14.6347 125.414 15.3617 125.414 16.2163Z" fill="white"/>
<path d="M144.612 25.3617C143.278 25.3617 142.107 25.046 141.1 24.4146C140.1 23.7833 139.317 22.9 138.753 21.7648C138.195 20.6296 137.916 19.303 137.916 17.7852C137.916 16.2546 138.195 14.9185 138.753 13.7769C139.317 12.6353 140.1 11.7488 141.1 11.1175C142.107 10.4861 143.278 10.1704 144.612 10.1704C145.946 10.1704 147.114 10.4861 148.114 11.1175C149.121 11.7488 149.904 12.6353 150.462 13.7769C151.026 14.9185 151.308 16.2546 151.308 17.7852C151.308 19.303 151.026 20.6296 150.462 21.7648C149.904 22.9 149.121 23.7833 148.114 24.4146C147.114 25.046 145.946 25.3617 144.612 25.3617ZM144.612 23.3336C145.626 23.3336 146.459 23.0754 147.114 22.5588C147.768 22.0422 148.252 21.363 148.566 20.5212C148.881 19.6793 149.038 18.7673 149.038 17.7852C149.038 16.803 148.881 15.8879 148.566 15.0397C148.252 14.1914 147.768 13.5059 147.114 12.9829C146.459 12.4599 145.626 12.1985 144.612 12.1985C143.599 12.1985 142.765 12.4599 142.111 12.9829C141.456 13.5059 140.972 14.1914 140.658 15.0397C140.344 15.8879 140.186 16.803 140.186 17.7852C140.186 18.7673 140.344 19.6793 140.658 20.5212C140.972 21.363 141.456 22.0422 142.111 22.5588C142.765 23.0754 143.599 23.3336 144.612 23.3336Z" fill="white"/>
<path d="M160.236 25.3617C158.902 25.3617 157.731 25.046 156.724 24.4146C155.724 23.7833 154.941 22.9 154.377 21.7648C153.819 20.6296 153.54 19.303 153.54 17.7852C153.54 16.2546 153.819 14.9185 154.377 13.7769C154.941 12.6353 155.724 11.7488 156.724 11.1175C157.731 10.4861 158.902 10.1704 160.236 10.1704C161.57 10.1704 162.738 10.4861 163.738 11.1175C164.745 11.7488 165.528 12.6353 166.086 13.7769C166.65 14.9185 166.932 16.2546 166.932 17.7852C166.932 19.303 166.65 20.6296 166.086 21.7648C165.528 22.9 164.745 23.7833 163.738 24.4146C162.738 25.046 161.57 25.3617 160.236 25.3617ZM160.236 23.3336C161.249 23.3336 162.083 23.0754 162.738 22.5588C163.392 22.0422 163.876 21.363 164.19 20.5212C164.505 19.6793 164.662 18.7673 164.662 17.7852C164.662 16.803 164.505 15.8879 164.19 15.0397C163.876 14.1914 163.392 13.5059 162.738 12.9829C162.083 12.4599 161.249 12.1985 160.236 12.1985C159.223 12.1985 158.389 12.4599 157.735 12.9829C157.08 13.5059 156.596 14.1914 156.282 15.0397C155.968 15.8879 155.81 16.803 155.81 17.7852C155.81 18.7673 155.968 19.6793 156.282 20.5212C156.596 21.363 157.08 22.0422 157.735 22.5588C158.389 23.0754 159.223 23.3336 160.236 23.3336Z" fill="white"/>
<path d="M176.283 10.3617V12.275H168.625V10.3617H176.283ZM170.857 6.84133H173.128V20.8464C173.128 21.4842 173.221 21.9625 173.407 22.2814C173.599 22.5939 173.843 22.8043 174.138 22.9127C174.439 23.0148 174.757 23.0658 175.09 23.0658C175.34 23.0658 175.546 23.053 175.706 23.0275C175.866 22.9956 175.995 22.9701 176.091 22.951L176.553 24.9791C176.399 25.0365 176.184 25.0939 175.908 25.1512C175.632 25.215 175.283 25.2469 174.859 25.2469C174.218 25.2469 173.589 25.1098 172.974 24.8356C172.364 24.5613 171.858 24.1436 171.454 23.5824C171.056 23.0212 170.857 22.3132 170.857 21.4587V6.84133Z" fill="white"/>
</svg>
